<?xml version="1.0" encoding="utf-8"?>
<!-- Generator: Adobe Illustrator 16.0.0, SVG Export Plug-In . SVG Version: 6.00 Build 0)  -->
<!DOCTYPE svg PUBLIC "-//W3C//DTD SVG 1.1//EN" "http://www.w3.org/Graphics/SVG/1.1/DTD/svg11.dtd">
<svg version="1.1" id="Layer_1" xmlns="http://www.w3.org/2000/svg" xmlns:xlink="http://www.w3.org/1999/xlink" x="0px" y="0px"
	 width="384px" height="80px" viewBox="0 0 384 80" enable-background="new 0 0 384 80" xml:space="preserve">
<g>
	<g>
		<defs>
			<path id="SVGID_1_" d="M20.034,80c-0.964,0-1.859-0.18-2.687-0.541c-0.827-0.359-1.545-0.886-2.157-1.576
				s-1.093-1.542-1.445-2.557c-0.353-1.014-0.529-2.173-0.529-3.479c0-1.308,0.191-2.467,0.572-3.479
				c0.38-1.014,0.888-1.866,1.52-2.557c0.634-0.69,1.367-1.212,2.201-1.567c0.834-0.351,1.705-0.528,2.61-0.528
				c0.561,0,1.071,0.038,1.531,0.113c0.46,0.074,0.863,0.169,1.209,0.281c0.345,0.113,0.64,0.225,0.884,0.338
				c0.243,0.112,0.431,0.214,0.561,0.305l-0.475,1.328c-0.359-0.226-0.816-0.447-1.37-0.664c-0.553-0.217-1.24-0.328-2.061-0.328
				c-0.935,0-1.75,0.166-2.448,0.497c-0.698,0.329-1.283,0.796-1.759,1.396c-0.474,0.602-0.829,1.315-1.067,2.141
				s-0.356,1.742-0.356,2.748c0,1.036,0.119,1.97,0.356,2.804s0.586,1.544,1.046,2.128c0.459,0.587,1.024,1.036,1.694,1.352
				c0.668,0.316,1.434,0.474,2.296,0.474c0.949,0,1.745-0.095,2.384-0.281c0.639-0.188,1.125-0.379,1.456-0.575l0.41,1.307
				c-0.101,0.076-0.274,0.163-0.519,0.26c-0.244,0.097-0.553,0.199-0.926,0.304c-0.375,0.105-0.806,0.191-1.295,0.26
				C21.184,79.966,20.638,80,20.034,80"/>
		</defs>
		<clipPath id="SVGID_2_">
			<use xlink:href="#SVGID_1_"  overflow="visible"/>
		</clipPath>
		<g clip-path="url(#SVGID_2_)">
			<defs>
				<rect id="SVGID_3_" x="-459.05" y="-77.762" width="1302.806" height="1983.726"/>
			</defs>
			<clipPath id="SVGID_4_">
				<use xlink:href="#SVGID_3_"  overflow="visible"/>
			</clipPath>
			<rect x="8.129" y="58.626" clip-path="url(#SVGID_4_)" fill="#FFFFFF" width="21.374" height="26.464"/>
		</g>
	</g>
	<g>
		<defs>
			<path id="SVGID_5_" d="M51.446,71.847c0-1.051-0.122-1.993-0.366-2.826c-0.246-0.835-0.591-1.543-1.038-2.13
				c-0.448-0.586-0.987-1.033-1.618-1.339c-0.631-0.309-1.342-0.464-2.128-0.464s-1.495,0.155-2.127,0.464
				c-0.631,0.306-1.17,0.753-1.618,1.339c-0.447,0.587-0.794,1.295-1.038,2.13c-0.244,0.833-0.367,1.775-0.367,2.826
				c0,1.052,0.123,1.992,0.367,2.826s0.591,1.544,1.038,2.128c0.448,0.587,0.987,1.036,1.618,1.352
				c0.632,0.316,1.34,0.474,2.127,0.474s1.498-0.157,2.128-0.474c0.631-0.315,1.17-0.765,1.618-1.352
				c0.447-0.584,0.792-1.294,1.038-2.128C51.325,73.839,51.446,72.898,51.446,71.847z M52.913,71.847
				c0,1.335-0.177,2.516-0.529,3.535c-0.354,1.021-0.832,1.873-1.437,2.558c-0.603,0.683-1.306,1.196-2.106,1.543
				C48.041,79.826,47.192,80,46.296,80c-0.895,0-1.743-0.174-2.543-0.518c-0.801-0.347-1.504-0.86-2.107-1.543
				c-0.604-0.685-1.082-1.536-1.436-2.558c-0.353-1.02-0.529-2.2-0.529-3.535c0-1.336,0.176-2.512,0.529-3.525
				c0.354-1.015,0.831-1.862,1.436-2.545c0.603-0.684,1.306-1.198,2.107-1.543c0.8-0.346,1.649-0.519,2.543-0.519
				c0.896,0,1.745,0.173,2.545,0.519c0.8,0.345,1.503,0.859,2.106,1.543c0.604,0.683,1.083,1.53,1.437,2.545
				C52.735,69.335,52.913,70.511,52.913,71.847z"/>
		</defs>
		<clipPath id="SVGID_6_">
			<use xlink:href="#SVGID_5_"  overflow="visible"/>
		</clipPath>
		<g clip-path="url(#SVGID_6_)">
			<defs>
				<rect id="SVGID_7_" x="-459.05" y="-77.762" width="1302.806" height="1983.726"/>
			</defs>
			<clipPath id="SVGID_8_">
				<use xlink:href="#SVGID_7_"  overflow="visible"/>
			</clipPath>
			<rect x="34.592" y="58.626" clip-path="url(#SVGID_8_)" fill="#FFFFFF" width="23.409" height="26.464"/>
		</g>
	</g>
	<g>
		<defs>
			<path id="SVGID_9_" d="M80.205,78.981c-0.272-0.51-0.614-1.113-1.025-1.808c-0.412-0.693-0.868-1.43-1.37-2.21
				c-0.502-0.778-1.027-1.585-1.573-2.417c-0.546-0.833-1.091-1.642-1.632-2.43c-0.542-0.787-1.072-1.523-1.59-2.212
				c-0.519-0.688-0.979-1.281-1.381-1.782v12.858h-1.418V63.715h1.143c0.721,0.837,1.493,1.803,2.316,2.9
				c0.821,1.096,1.628,2.213,2.419,3.352c0.791,1.137,1.529,2.249,2.214,3.335c0.685,1.087,1.247,2.033,1.687,2.839V63.715h1.418
				v15.267H80.205"/>
		</defs>
		<clipPath id="SVGID_10_">
			<use xlink:href="#SVGID_9_"  overflow="visible"/>
		</clipPath>
		<g clip-path="url(#SVGID_10_)">
			<defs>
				<rect id="SVGID_11_" x="-459.05" y="-77.762" width="1302.806" height="1983.726"/>
			</defs>
			<clipPath id="SVGID_12_">
				<use xlink:href="#SVGID_11_"  overflow="visible"/>
			</clipPath>
			<rect x="65.126" y="58.626" clip-path="url(#SVGID_12_)" fill="#FFFFFF" width="21.375" height="25.445"/>
		</g>
	</g>
	<g>
		<defs>
			<polyline id="SVGID_13_" points="99.732,78.981 99.732,63.715 107.875,63.715 107.875,65.016 101.133,65.016 101.133,70.391 
				107.111,70.391 107.111,71.69 101.133,71.69 101.133,78.981 99.732,78.981 			"/>
		</defs>
		<clipPath id="SVGID_14_">
			<use xlink:href="#SVGID_13_"  overflow="visible"/>
		</clipPath>
		<g clip-path="url(#SVGID_14_)">
			<defs>
				<rect id="SVGID_15_" x="-459.05" y="-77.762" width="1302.806" height="1983.726"/>
			</defs>
			<clipPath id="SVGID_16_">
				<use xlink:href="#SVGID_15_"  overflow="visible"/>
			</clipPath>
			<rect x="94.643" y="58.626" clip-path="url(#SVGID_16_)" fill="#FFFFFF" width="18.32" height="25.445"/>
		</g>
	</g>
	<g>
		<defs>
			<polyline id="SVGID_17_" points="125.177,78.981 125.177,63.715 132.823,63.715 132.823,65.016 126.478,65.016 126.478,70.325 
				132.136,70.325 132.136,71.602 126.478,71.602 126.478,77.684 133.32,77.684 133.32,78.981 125.177,78.981 			"/>
		</defs>
		<clipPath id="SVGID_18_">
			<use xlink:href="#SVGID_17_"  overflow="visible"/>
		</clipPath>
		<g clip-path="url(#SVGID_18_)">
			<defs>
				<rect id="SVGID_19_" x="-459.05" y="-77.762" width="1302.806" height="1983.726"/>
			</defs>
			<clipPath id="SVGID_20_">
				<use xlink:href="#SVGID_19_"  overflow="visible"/>
			</clipPath>
			<rect x="120.088" y="58.626" clip-path="url(#SVGID_20_)" fill="#FFFFFF" width="18.321" height="25.445"/>
		</g>
	</g>
	<g>
		<defs>
			<path id="SVGID_21_" d="M155.684,65.004c-0.563,0-1.056,0.019-1.479,0.054c-0.421,0.036-0.773,0.07-1.054,0.1V71.6h2.086
				c0.697,0,1.356-0.031,1.979-0.097c0.621-0.066,1.163-0.212,1.621-0.438s0.822-0.55,1.089-0.971
				c0.266-0.423,0.399-0.998,0.399-1.727c0-0.668-0.133-1.224-0.399-1.659c-0.267-0.437-0.615-0.783-1.043-1.037
				c-0.43-0.256-0.923-0.43-1.478-0.525C156.85,65.052,156.276,65.004,155.684,65.004z M161.905,68.39
				c0,1.136-0.305,2.032-0.912,2.686c-0.607,0.656-1.406,1.13-2.398,1.419c0.237,0.293,0.544,0.687,0.92,1.181
				c0.377,0.495,0.767,1.038,1.168,1.627c0.399,0.59,0.791,1.206,1.177,1.846c0.385,0.641,0.711,1.253,0.977,1.834h-1.622
				c-0.311-0.581-0.647-1.164-1.01-1.747c-0.364-0.581-0.734-1.146-1.111-1.692c-0.377-0.546-0.743-1.052-1.099-1.518
				c-0.356-0.467-0.667-0.873-0.933-1.224c-0.476,0.045-0.948,0.065-1.422,0.065h-2.487v6.115h-1.512V64.13
				c0.533-0.146,1.159-0.251,1.877-0.316c0.717-0.065,1.381-0.099,1.988-0.099c2.118,0,3.712,0.395,4.788,1.18
				C161.367,65.68,161.905,66.847,161.905,68.39z"/>
		</defs>
		<clipPath id="SVGID_22_">
			<use xlink:href="#SVGID_21_"  overflow="visible"/>
		</clipPath>
		<g clip-path="url(#SVGID_22_)">
			<defs>
				<rect id="SVGID_23_" x="-459.05" y="-77.762" width="1302.806" height="1983.726"/>
			</defs>
			<clipPath id="SVGID_24_">
				<use xlink:href="#SVGID_23_"  overflow="visible"/>
			</clipPath>
			<rect x="146.552" y="58.626" clip-path="url(#SVGID_24_)" fill="#FFFFFF" width="21.374" height="25.445"/>
		</g>
	</g>
	<g>
		<defs>
			<polyline id="SVGID_25_" points="179.122,78.981 179.122,63.715 186.767,63.715 186.767,65.016 180.421,65.016 180.421,70.325 
				186.08,70.325 186.08,71.602 180.421,71.602 180.421,77.684 187.264,77.684 187.264,78.981 179.122,78.981 			"/>
		</defs>
		<clipPath id="SVGID_26_">
			<use xlink:href="#SVGID_25_"  overflow="visible"/>
		</clipPath>
		<g clip-path="url(#SVGID_26_)">
			<defs>
				<rect id="SVGID_27_" x="-459.05" y="-77.762" width="1302.806" height="1983.726"/>
			</defs>
			<clipPath id="SVGID_28_">
				<use xlink:href="#SVGID_27_"  overflow="visible"/>
			</clipPath>
			<rect x="174.032" y="58.626" clip-path="url(#SVGID_28_)" fill="#FFFFFF" width="18.321" height="25.445"/>
		</g>
	</g>
	<g>
		<defs>
			<path id="SVGID_29_" d="M212.52,78.981c-0.27-0.51-0.612-1.113-1.023-1.808c-0.411-0.693-0.868-1.43-1.37-2.21
				c-0.502-0.778-1.027-1.585-1.573-2.417c-0.547-0.833-1.092-1.642-1.633-2.43c-0.542-0.787-1.071-1.523-1.589-2.212
				c-0.521-0.688-0.979-1.281-1.382-1.782v12.858h-1.418V63.715h1.144c0.719,0.837,1.491,1.803,2.314,2.9
				c0.823,1.096,1.629,2.213,2.421,3.352c0.79,1.137,1.528,2.249,2.213,3.335c0.685,1.087,1.248,2.033,1.688,2.839V63.715h1.417
				v15.267H212.52"/>
		</defs>
		<clipPath id="SVGID_30_">
			<use xlink:href="#SVGID_29_"  overflow="visible"/>
		</clipPath>
		<g clip-path="url(#SVGID_30_)">
			<defs>
				<rect id="SVGID_31_" x="-459.05" y="-77.762" width="1302.806" height="1983.726"/>
			</defs>
			<clipPath id="SVGID_32_">
				<use xlink:href="#SVGID_31_"  overflow="visible"/>
			</clipPath>
			<rect x="197.442" y="58.626" clip-path="url(#SVGID_32_)" fill="#FFFFFF" width="21.374" height="25.445"/>
		</g>
	</g>
	<g>
		<defs>
			<path id="SVGID_33_" d="M238.865,80c-0.964,0-1.858-0.18-2.687-0.541c-0.826-0.359-1.547-0.886-2.156-1.576
				c-0.613-0.69-1.094-1.542-1.446-2.557c-0.353-1.014-0.528-2.173-0.528-3.479c0-1.308,0.191-2.467,0.571-3.479
				c0.381-1.014,0.888-1.866,1.522-2.557c0.633-0.69,1.365-1.212,2.199-1.567c0.835-0.351,1.704-0.528,2.61-0.528
				c0.562,0,1.071,0.038,1.532,0.113c0.458,0.074,0.863,0.169,1.207,0.281c0.345,0.113,0.641,0.225,0.886,0.338
				c0.245,0.112,0.43,0.214,0.561,0.305l-0.475,1.328c-0.361-0.226-0.817-0.447-1.37-0.664c-0.555-0.217-1.24-0.328-2.061-0.328
				c-0.935,0-1.75,0.166-2.447,0.497c-0.699,0.329-1.284,0.796-1.76,1.396c-0.473,0.602-0.829,1.315-1.066,2.141
				c-0.238,0.825-0.357,1.742-0.357,2.748c0,1.036,0.119,1.97,0.357,2.804c0.237,0.834,0.585,1.544,1.046,2.128
				c0.46,0.587,1.023,1.036,1.693,1.352c0.668,0.316,1.434,0.474,2.297,0.474c0.949,0,1.743-0.095,2.384-0.281
				c0.64-0.188,1.124-0.379,1.457-0.575l0.409,1.307c-0.101,0.076-0.272,0.163-0.519,0.26c-0.244,0.097-0.554,0.199-0.927,0.304
				c-0.375,0.105-0.806,0.191-1.294,0.26C240.015,79.966,239.469,80,238.865,80"/>
		</defs>
		<clipPath id="SVGID_34_">
			<use xlink:href="#SVGID_33_"  overflow="visible"/>
		</clipPath>
		<g clip-path="url(#SVGID_34_)">
			<defs>
				<rect id="SVGID_35_" x="-459.05" y="-77.762" width="1302.806" height="1983.726"/>
			</defs>
			<clipPath id="SVGID_36_">
				<use xlink:href="#SVGID_35_"  overflow="visible"/>
			</clipPath>
			<rect x="226.959" y="58.626" clip-path="url(#SVGID_36_)" fill="#FFFFFF" width="21.374" height="26.464"/>
		</g>
	</g>
	<g>
		<defs>
			<polyline id="SVGID_37_" points="260.547,78.981 260.547,63.715 268.192,63.715 268.192,65.016 261.848,65.016 261.848,70.325 
				267.504,70.325 267.504,71.602 261.848,71.602 261.848,77.684 268.689,77.684 268.689,78.981 260.547,78.981 			"/>
		</defs>
		<clipPath id="SVGID_38_">
			<use xlink:href="#SVGID_37_"  overflow="visible"/>
		</clipPath>
		<g clip-path="url(#SVGID_38_)">
			<defs>
				<rect id="SVGID_39_" x="-459.05" y="-77.762" width="1302.806" height="1983.726"/>
			</defs>
			<clipPath id="SVGID_40_">
				<use xlink:href="#SVGID_39_"  overflow="visible"/>
			</clipPath>
			<rect x="255.458" y="58.626" clip-path="url(#SVGID_40_)" fill="#FFFFFF" width="18.32" height="25.445"/>
		</g>
	</g>
	<g>
		<defs>
			<path id="SVGID_41_" d="M293.735,67.979c0,0.546-0.095,1.07-0.283,1.572c-0.191,0.504-0.438,0.987-0.742,1.453
				c-0.304,0.468-0.646,0.915-1.026,1.347c-0.38,0.43-0.754,0.839-1.121,1.227c-0.191,0.202-0.396,0.428-0.618,0.679
				c-0.221,0.252-0.435,0.507-0.636,0.765c-0.204,0.258-0.384,0.498-0.543,0.721c-0.157,0.222-0.256,0.407-0.295,0.55h5.664v2.69
				h-8.78c-0.025-0.157-0.038-0.358-0.038-0.602v-0.518c0-0.69,0.1-1.321,0.295-1.895c0.197-0.574,0.452-1.109,0.769-1.604
				c0.318-0.495,0.676-0.958,1.074-1.388c0.398-0.432,0.795-0.862,1.188-1.293c0.305-0.33,0.589-0.644,0.854-0.938
				c0.266-0.295,0.502-0.581,0.703-0.859c0.203-0.281,0.362-0.562,0.476-0.841c0.114-0.279,0.172-0.563,0.172-0.851
				c0-0.631-0.159-1.077-0.477-1.335c-0.316-0.259-0.709-0.389-1.177-0.389c-0.344,0-0.663,0.062-0.961,0.184
				c-0.297,0.122-0.569,0.267-0.817,0.432c-0.246,0.166-0.46,0.33-0.636,0.495c-0.178,0.164-0.311,0.299-0.4,0.397l-1.405-2.239
				c0.559-0.588,1.207-1.073,1.949-1.454c0.74-0.38,1.535-0.57,2.385-0.57c0.771,0,1.437,0.101,1.995,0.302
				c0.557,0.2,1.017,0.484,1.378,0.851c0.359,0.365,0.626,0.812,0.797,1.336C293.65,66.728,293.735,67.318,293.735,67.979"/>
		</defs>
		<clipPath id="SVGID_42_">
			<use xlink:href="#SVGID_41_"  overflow="visible"/>
		</clipPath>
		<g clip-path="url(#SVGID_42_)">
			<defs>
				<rect id="SVGID_43_" x="-459.05" y="-77.762" width="1302.806" height="1983.726"/>
			</defs>
			<clipPath id="SVGID_44_">
				<use xlink:href="#SVGID_43_"  overflow="visible"/>
			</clipPath>
			<rect x="279.886" y="58.626" clip-path="url(#SVGID_44_)" fill="#ED1C24" width="19.338" height="25.445"/>
		</g>
	</g>
	<g>
		<defs>
			<path id="SVGID_45_" d="M318.213,71.847c0-0.781-0.038-1.49-0.113-2.129c-0.073-0.638-0.193-1.19-0.357-1.654
				c-0.164-0.467-0.388-0.826-0.672-1.083c-0.282-0.255-0.635-0.383-1.053-0.383s-0.765,0.128-1.041,0.383
				c-0.277,0.257-0.498,0.616-0.671,1.083c-0.172,0.464-0.295,1.017-0.37,1.654c-0.074,0.639-0.111,1.348-0.111,2.129
				c0,0.78,0.037,1.494,0.111,2.14c0.075,0.646,0.198,1.202,0.37,1.666c0.173,0.467,0.394,0.826,0.671,1.081
				c0.276,0.257,0.623,0.384,1.041,0.384s0.771-0.127,1.053-0.384c0.284-0.255,0.508-0.614,0.672-1.081
				c0.164-0.464,0.284-1.021,0.357-1.666C318.175,73.341,318.213,72.627,318.213,71.847z M321.616,71.847
				c0,2.628-0.497,4.644-1.489,6.047c-0.993,1.404-2.362,2.106-4.109,2.106c-1.746,0-3.115-0.702-4.108-2.106
				c-0.992-1.403-1.489-3.419-1.489-6.047c0-1.308,0.132-2.462,0.392-3.469c0.262-1.006,0.638-1.854,1.132-2.545
				c0.492-0.69,1.082-1.217,1.77-1.576c0.686-0.361,1.454-0.542,2.305-0.542c1.747,0,3.116,0.702,4.109,2.106
				C321.119,67.226,321.616,69.234,321.616,71.847z"/>
		</defs>
		<clipPath id="SVGID_46_">
			<use xlink:href="#SVGID_45_"  overflow="visible"/>
		</clipPath>
		<g clip-path="url(#SVGID_46_)">
			<defs>
				<rect id="SVGID_47_" x="-459.05" y="-77.762" width="1302.806" height="1983.726"/>
			</defs>
			<clipPath id="SVGID_48_">
				<use xlink:href="#SVGID_47_"  overflow="visible"/>
			</clipPath>
			<rect x="305.331" y="58.626" clip-path="url(#SVGID_48_)" fill="#ED1C24" width="21.374" height="26.464"/>
		</g>
	</g>
	<g>
		<defs>
			<path id="SVGID_49_" d="M336.883,66.888c0.414-0.175,0.846-0.378,1.295-0.604c0.449-0.228,0.889-0.479,1.315-0.751
				c0.43-0.271,0.838-0.556,1.231-0.859c0.391-0.3,0.744-0.619,1.059-0.958h2.225v15.267h-3.188V67.988
				c-0.427,0.295-0.905,0.562-1.433,0.805c-0.527,0.243-1.04,0.451-1.541,0.629L336.883,66.888"/>
		</defs>
		<clipPath id="SVGID_50_">
			<use xlink:href="#SVGID_49_"  overflow="visible"/>
		</clipPath>
		<g clip-path="url(#SVGID_50_)">
			<defs>
				<rect id="SVGID_51_" x="-459.05" y="-77.762" width="1302.806" height="1983.726"/>
			</defs>
			<clipPath id="SVGID_52_">
				<use xlink:href="#SVGID_51_"  overflow="visible"/>
			</clipPath>
			<rect x="331.795" y="58.626" clip-path="url(#SVGID_52_)" fill="#ED1C24" width="17.303" height="25.445"/>
		</g>
	</g>
	<g>
		<defs>
			<path id="SVGID_53_" d="M367.679,71.691c-0.332,0-0.686,0.029-1.061,0.086c-0.377,0.058-0.67,0.136-0.88,0.236
				c0,0.057-0.006,0.145-0.012,0.258c-0.008,0.113-0.013,0.213-0.013,0.3c0,0.515,0.039,1.001,0.113,1.459
				c0.075,0.457,0.203,0.856,0.384,1.2c0.182,0.342,0.422,0.61,0.723,0.804c0.301,0.192,0.677,0.289,1.129,0.289
				c0.375,0,0.694-0.076,0.96-0.227c0.263-0.148,0.48-0.338,0.654-0.566c0.172-0.229,0.301-0.483,0.384-0.762
				s0.124-0.546,0.124-0.803c0-0.729-0.192-1.291-0.576-1.686C369.226,71.889,368.58,71.691,367.679,71.691z M368.108,69.205
				c0.978,0,1.809,0.125,2.494,0.374c0.685,0.251,1.244,0.591,1.679,1.019c0.438,0.43,0.754,0.93,0.95,1.502
				c0.196,0.571,0.294,1.179,0.294,1.822c0,0.573-0.109,1.158-0.327,1.757c-0.22,0.602-0.55,1.146-0.994,1.631
				c-0.445,0.487-1.008,0.887-1.692,1.201c-0.685,0.313-1.494,0.471-2.427,0.471c-1.881,0-3.312-0.563-4.29-1.692
				c-0.977-1.129-1.467-2.688-1.467-4.675c0-1.43,0.232-2.695,0.7-3.797c0.466-1.1,1.132-2.024,1.998-2.774
				c0.864-0.751,1.91-1.323,3.137-1.717c1.227-0.393,2.608-0.597,4.144-0.611c0.029,0.444,0.059,0.877,0.089,1.298
				c0.029,0.422,0.062,0.86,0.092,1.318c-0.768,0.015-1.487,0.083-2.157,0.204s-1.278,0.31-1.828,0.569
				c-0.549,0.257-1.026,0.589-1.434,0.996c-0.406,0.407-0.722,0.903-0.946,1.49c0.329-0.144,0.668-0.244,1.015-0.3
				C367.483,69.234,367.807,69.205,368.108,69.205z"/>
		</defs>
		<use xlink:href="#SVGID_53_"  overflow="visible" fill-rule="evenodd" clip-rule="evenodd" fill="#ED1C24"/>
		<clipPath id="SVGID_54_">
			<use xlink:href="#SVGID_53_"  overflow="visible"/>
		</clipPath>
		<g clip-path="url(#SVGID_54_)">
			<defs>
				<rect id="SVGID_55_" x="-459.05" y="-77.762" width="1302.806" height="1983.726"/>
			</defs>
			<clipPath id="SVGID_56_">
				<use xlink:href="#SVGID_55_"  overflow="visible"/>
			</clipPath>
		</g>
	</g>
	<g>
		<g>
			<path fill="#EC1C24" d="M76.305,41.904c0,4.616-1.173,7.994-3.518,10.136c-2.345,2.142-5.936,3.212-10.773,3.212
				c-1.771,0-3.498-0.146-5.179-0.441c-1.68-0.297-3.203-0.685-4.568-1.164l1.218-5.705c1.145,0.479,2.446,0.867,3.905,1.163
				c1.458,0.296,3.037,0.443,4.735,0.443c2.695,0,4.615-0.554,5.761-1.661c1.144-1.107,1.717-2.752,1.717-4.93V41.85
				c-0.664,0.332-1.542,0.664-2.63,0.996c-1.09,0.333-2.336,0.498-3.739,0.498c-1.846,0-3.536-0.295-5.067-0.886
				c-1.533-0.59-2.844-1.458-3.932-2.602c-1.09-1.145-1.939-2.577-2.548-4.293c-0.609-1.717-0.914-3.701-0.914-5.954
				c0-2.104,0.322-4.043,0.969-5.815c0.645-1.772,1.587-3.285,2.825-4.542c1.236-1.254,2.741-2.233,4.514-2.935
				c1.772-0.701,3.785-1.052,6.038-1.052c2.177,0,4.245,0.166,6.203,0.498c1.957,0.332,3.618,0.684,4.985,1.052V41.904z
				 M57.639,29.609c0,2.844,0.618,4.92,1.856,6.231c1.236,1.311,2.833,1.966,4.791,1.966c1.07,0,2.077-0.147,3.018-0.443
				c0.942-0.294,1.708-0.645,2.299-1.052v-15.01c-0.48-0.11-1.071-0.212-1.772-0.305c-0.702-0.091-1.587-0.138-2.658-0.138
				c-2.438,0-4.302,0.803-5.594,2.409C58.285,24.874,57.639,26.987,57.639,29.609z"/>
			<path fill="#EC1C24" d="M90.932,7.399c0,1.255-0.407,2.253-1.219,2.991c-0.812,0.739-1.772,1.107-2.879,1.107
				c-1.145,0-2.125-0.368-2.937-1.107c-0.812-0.738-1.218-1.736-1.218-2.991c0-1.292,0.406-2.308,1.218-3.046
				c0.812-0.739,1.792-1.107,2.937-1.107c1.107,0,2.067,0.369,2.879,1.107C90.525,5.091,90.932,6.107,90.932,7.399z M90.212,44.84
				H83.51V15.873h6.702V44.84z"/>
			<path fill="#EC1C24" d="M107.425,45.395c-1.994-0.037-3.647-0.26-4.957-0.665c-1.311-0.406-2.354-0.987-3.129-1.745
				c-0.775-0.756-1.32-1.698-1.634-2.824c-0.314-1.126-0.47-2.41-0.47-3.849V2.968l6.701-1.107v33.176
				c0,0.812,0.064,1.496,0.194,2.049c0.129,0.554,0.36,1.024,0.692,1.413c0.333,0.387,0.784,0.683,1.357,0.886
				s1.302,0.36,2.188,0.471L107.425,45.395z"/>
			<path fill="#EC1C24" d="M110.93,30.495c0-2.548,0.379-4.781,1.136-6.702c0.756-1.919,1.763-3.517,3.019-4.791
				c1.255-1.274,2.695-2.233,4.32-2.879c1.625-0.646,3.286-0.97,4.985-0.97c3.988,0,7.098,1.238,9.333,3.71
				c2.233,2.475,3.351,6.167,3.351,11.077c0,0.37-0.01,0.785-0.028,1.247c-0.019,0.462-0.046,0.877-0.083,1.247h-19.107
				c0.184,2.326,1.005,4.125,2.464,5.4c1.458,1.274,3.573,1.911,6.342,1.911c1.624,0,3.11-0.147,4.458-0.444
				c1.348-0.295,2.41-0.609,3.185-0.941l0.886,5.484c-0.369,0.185-0.878,0.379-1.523,0.581c-0.646,0.204-1.385,0.388-2.215,0.554
				c-0.831,0.166-1.727,0.305-2.687,0.416c-0.96,0.11-1.938,0.166-2.935,0.166c-2.547,0-4.762-0.379-6.646-1.136
				c-1.883-0.757-3.434-1.81-4.652-3.157c-1.219-1.347-2.125-2.935-2.715-4.763C111.225,34.677,110.93,32.675,110.93,30.495z
				 M130.371,27.504c0-0.923-0.129-1.8-0.388-2.631c-0.258-0.831-0.636-1.551-1.135-2.16c-0.498-0.609-1.107-1.088-1.828-1.44
				c-0.72-0.35-1.579-0.526-2.575-0.526c-1.034,0-1.938,0.194-2.714,0.581c-0.775,0.388-1.432,0.896-1.966,1.523
				c-0.536,0.629-0.951,1.349-1.246,2.16c-0.296,0.813-0.499,1.644-0.609,2.493H130.371z"/>
		</g>
		<g>
			<path fill="#FFFFFF" d="M153.156,42.402c2.992,0,5.317-0.545,6.979-1.637c1.661-1.092,2.492-2.859,2.492-5.301
				c0-1.407-0.269-2.582-0.803-3.525c-0.537-0.943-1.247-1.74-2.132-2.387c-0.887-0.648-1.903-1.201-3.047-1.66
				s-2.344-0.945-3.6-1.459c-1.588-0.623-3.01-1.265-4.265-1.926c-1.255-0.661-2.326-1.407-3.212-2.238
				c-0.886-0.831-1.56-1.781-2.021-2.852c-0.462-1.07-0.692-2.327-0.692-3.767c0-3.286,1.089-5.778,3.267-7.477
				c2.179-1.697,5.207-2.547,9.084-2.547c1.033,0,2.049,0.074,3.046,0.222c0.998,0.148,1.93,0.341,2.797,0.581
				c0.867,0.24,1.661,0.508,2.381,0.803c0.72,0.295,1.32,0.609,1.8,0.941l-1.329,3.157c-1.071-0.738-2.373-1.329-3.905-1.771
				c-1.532-0.443-3.185-0.666-4.957-0.666c-1.219,0-2.335,0.121-3.35,0.361c-1.017,0.24-1.893,0.628-2.632,1.163
				c-0.739,0.536-1.32,1.21-1.745,2.022s-0.637,1.792-0.637,2.936c0,1.182,0.221,2.179,0.665,2.991
				c0.443,0.812,1.061,1.514,1.856,2.104c0.792,0.592,1.725,1.127,2.796,1.607c1.071,0.48,2.234,0.978,3.49,1.495
				c1.513,0.629,2.944,1.255,4.293,1.883c1.347,0.627,2.519,1.366,3.517,2.215c0.997,0.851,1.79,1.884,2.382,3.103
				c0.59,1.218,0.886,2.714,0.886,4.486c0,3.472-1.21,6.074-3.628,7.81c-2.418,1.736-5.696,2.602-9.831,2.602
				c-1.477,0-2.825-0.092-4.043-0.275c-1.218-0.186-2.308-0.416-3.268-0.693c-0.96-0.276-1.772-0.562-2.437-0.857
				c-0.665-0.295-1.182-0.555-1.55-0.775l1.218-3.268c0.369,0.221,0.867,0.48,1.495,0.776c0.628,0.295,1.366,0.581,2.216,0.857
				c0.849,0.277,1.809,0.508,2.88,0.692C150.682,42.312,151.864,42.402,153.156,42.402z"/>
			<path fill="#FFFFFF" d="M176.435,7.565c0,0.85-0.259,1.523-0.775,2.021c-0.518,0.499-1.145,0.748-1.883,0.748
				c-0.739,0-1.366-0.25-1.883-0.748c-0.518-0.499-0.776-1.172-0.776-2.021c0-0.849,0.258-1.523,0.776-2.021
				c0.517-0.499,1.144-0.748,1.883-0.748c0.738,0,1.365,0.249,1.883,0.748C176.176,6.042,176.435,6.716,176.435,7.565z
				 M175.604,44.84h-3.6V16.206h3.6V44.84z"/>
			<path fill="#FFFFFF" d="M183.607,17.202c1.07-0.295,2.51-0.627,4.32-0.997c1.809-0.368,4.023-0.554,6.646-0.554
				c2.179,0,3.997,0.314,5.456,0.942c1.458,0.628,2.621,1.523,3.488,2.687c0.867,1.163,1.487,2.557,1.855,4.181
				c0.37,1.625,0.555,3.416,0.555,5.372V44.84h-3.601V29.997c0-2.03-0.138-3.747-0.415-5.15c-0.276-1.403-0.74-2.548-1.384-3.434
				c-0.648-0.886-1.497-1.523-2.549-1.911c-1.052-0.388-2.372-0.582-3.96-0.582c-1.698,0-3.166,0.093-4.402,0.277
				c-1.237,0.186-2.042,0.351-2.411,0.499V44.84h-3.599V17.202z"/>
			<path fill="#FFFFFF" d="M232.385,41.518c-0.222,0.186-0.554,0.396-0.997,0.637c-0.442,0.24-0.988,0.489-1.634,0.746
				c-0.646,0.26-1.386,0.473-2.217,0.639c-0.83,0.166-1.762,0.248-2.797,0.248c-1.66,0-3.267-0.258-4.817-0.774
				s-2.909-1.33-4.071-2.437c-1.162-1.109-2.097-2.539-2.797-4.293c-0.702-1.754-1.052-3.887-1.052-6.397
				c0-2.031,0.313-3.914,0.94-5.649c0.628-1.735,1.524-3.241,2.687-4.514c1.163-1.274,2.585-2.271,4.266-2.991
				c1.678-0.719,3.572-1.08,5.676-1.08c2.659,0,4.793,0.176,6.397,0.526c1.606,0.351,2.926,0.692,3.96,1.024v26.142
				c0,4.283-1.108,7.34-3.323,9.167c-2.216,1.828-5.558,2.741-10.024,2.741c-1.847,0-3.518-0.139-5.011-0.415
				c-1.497-0.276-2.78-0.601-3.852-0.97l0.721-3.267c0.886,0.405,2.096,0.757,3.627,1.052c1.532,0.295,3.074,0.443,4.626,0.443
				c3.396,0,5.86-0.656,7.394-1.967c1.531-1.311,2.299-3.553,2.299-6.729V41.518z M232.329,19.695
				c-0.629-0.184-1.439-0.359-2.437-0.526c-0.999-0.166-2.419-0.25-4.265-0.25c-1.552,0-2.928,0.269-4.126,0.804
				c-1.2,0.536-2.226,1.292-3.074,2.271c-0.85,0.979-1.495,2.142-1.939,3.489c-0.442,1.348-0.664,2.834-0.664,4.458
				c0,1.883,0.258,3.499,0.774,4.847c0.518,1.348,1.191,2.447,2.022,3.296c0.83,0.849,1.78,1.467,2.853,1.855
				c1.07,0.388,2.16,0.582,3.267,0.582c1.625,0,3.111-0.24,4.46-0.72c1.347-0.479,2.391-1.034,3.129-1.662V19.695z"/>
			<path fill="#FFFFFF" d="M252.551,15.541c1.883,0,3.479,0.269,4.792,0.804c1.309,0.535,2.37,1.273,3.184,2.214
				c0.812,0.942,1.402,2.059,1.772,3.352c0.368,1.293,0.553,2.695,0.553,4.209v18.056c-0.368,0.111-0.905,0.23-1.605,0.359
				c-0.702,0.13-1.515,0.27-2.437,0.416c-0.923,0.146-1.948,0.268-3.075,0.359c-1.126,0.092-2.28,0.139-3.461,0.139
				c-1.514,0-2.907-0.166-4.181-0.498c-1.274-0.332-2.382-0.858-3.324-1.578c-0.941-0.721-1.68-1.644-2.216-2.77
				c-0.535-1.126-0.803-2.502-0.803-4.127c0-1.551,0.296-2.879,0.887-3.988c0.59-1.108,1.42-2.021,2.492-2.742
				c1.07-0.72,2.343-1.246,3.821-1.578c1.477-0.332,3.084-0.499,4.818-0.499c0.518,0,1.062,0.028,1.634,0.083
				c0.573,0.056,1.126,0.131,1.662,0.223c0.534,0.093,0.996,0.186,1.386,0.277c0.388,0.092,0.652,0.175,0.801,0.249v-1.772
				c0-0.997-0.072-1.966-0.221-2.908s-0.471-1.791-0.97-2.547c-0.497-0.756-1.199-1.366-2.105-1.828
				c-0.904-0.46-2.095-0.692-3.571-0.692c-2.104,0-3.674,0.148-4.707,0.443c-1.035,0.296-1.79,0.535-2.271,0.72l-0.499-3.157
				c0.628-0.295,1.598-0.572,2.908-0.83S250.703,15.541,252.551,15.541z M252.883,42.236c1.403,0,2.631-0.045,3.683-0.138
				c1.052-0.092,1.947-0.212,2.686-0.36v-10.08c-0.406-0.185-1.051-0.378-1.937-0.582c-0.886-0.203-2.105-0.304-3.657-0.304
				c-0.885,0-1.809,0.064-2.77,0.194c-0.96,0.129-1.847,0.407-2.656,0.83c-0.813,0.425-1.478,1.006-1.995,1.745
				c-0.518,0.74-0.776,1.717-0.776,2.936c0,1.072,0.176,1.976,0.527,2.714c0.35,0.739,0.849,1.33,1.496,1.772
				c0.645,0.443,1.42,0.767,2.324,0.969C250.713,42.136,251.739,42.236,252.883,42.236z"/>
			<path fill="#FFFFFF" d="M274.238,55.086h-3.6V17.202c1.071-0.368,2.438-0.72,4.098-1.052c1.663-0.333,3.769-0.499,6.315-0.499
				c2.104,0,4.015,0.343,5.73,1.025c1.719,0.683,3.196,1.671,4.433,2.963c1.236,1.292,2.195,2.862,2.881,4.708
				c0.682,1.847,1.023,3.932,1.023,6.259c0,2.179-0.286,4.182-0.859,6.009c-0.572,1.828-1.411,3.397-2.52,4.708
				c-1.107,1.312-2.464,2.336-4.071,3.073c-1.605,0.738-3.442,1.108-5.509,1.108c-1.884,0-3.518-0.269-4.903-0.804
				c-1.384-0.534-2.391-1.042-3.019-1.522V55.086z M274.238,39.689c0.333,0.258,0.748,0.535,1.246,0.831
				c0.499,0.296,1.081,0.571,1.746,0.831c0.665,0.258,1.384,0.471,2.16,0.637c0.774,0.166,1.587,0.248,2.437,0.248
				c1.771,0,3.258-0.305,4.457-0.913c1.2-0.608,2.17-1.44,2.909-2.492c0.738-1.053,1.274-2.29,1.605-3.711
				c0.332-1.42,0.498-2.926,0.498-4.514c0-3.766-0.941-6.655-2.823-8.667c-1.884-2.012-4.376-3.02-7.478-3.02
				c-1.773,0-3.204,0.083-4.293,0.25c-1.089,0.167-1.909,0.342-2.465,0.526V39.689z"/>
			<path fill="#FFFFFF" d="M326.196,30.55c0,2.252-0.324,4.302-0.97,6.148c-0.646,1.847-1.551,3.416-2.714,4.708
				c-1.163,1.293-2.54,2.299-4.126,3.019c-1.588,0.72-3.342,1.08-5.262,1.08s-3.674-0.36-5.262-1.08s-2.964-1.726-4.127-3.019
				c-1.163-1.292-2.067-2.861-2.713-4.708c-0.646-1.846-0.971-3.896-0.971-6.148c0-2.252,0.324-4.3,0.971-6.147
				c0.646-1.846,1.55-3.425,2.713-4.736s2.539-2.327,4.127-3.046s3.342-1.081,5.262-1.081s3.674,0.361,5.262,1.081
				c1.586,0.72,2.963,1.736,4.126,3.046s2.068,2.89,2.714,4.736C325.872,26.25,326.196,28.298,326.196,30.55z M322.375,30.55
				c0-3.581-0.832-6.434-2.494-8.557c-1.66-2.123-3.912-3.185-6.756-3.185c-2.843,0-5.095,1.062-6.758,3.185
				c-1.66,2.124-2.492,4.977-2.492,8.557c0,3.583,0.832,6.425,2.492,8.53c1.663,2.104,3.915,3.156,6.758,3.156
				c2.844,0,5.096-1.052,6.756-3.156C321.543,36.975,322.375,34.133,322.375,30.55z"/>
			<path fill="#FFFFFF" d="M342.439,15.651c1.182,0,2.299,0.093,3.352,0.278s1.78,0.37,2.187,0.553l-0.719,3.102
				c-0.296-0.147-0.896-0.304-1.801-0.471c-0.905-0.166-2.096-0.249-3.571-0.249c-1.552,0-2.797,0.111-3.738,0.333
				c-0.942,0.222-1.562,0.407-1.856,0.554v25.09h-3.601V17.535c0.924-0.406,2.197-0.821,3.822-1.246
				C338.137,15.865,340.113,15.651,342.439,15.651z"/>
			<path fill="#FFFFFF" d="M349.895,30.495c0-2.511,0.361-4.699,1.08-6.563c0.72-1.864,1.66-3.423,2.825-4.68
				c1.162-1.254,2.491-2.188,3.987-2.797c1.494-0.609,3.036-0.914,4.625-0.914c3.507,0,6.305,1.146,8.391,3.434
				c2.085,2.29,3.129,5.816,3.129,10.579c0,0.295-0.009,0.591-0.027,0.885c-0.019,0.297-0.046,0.573-0.084,0.832h-20.104
				c0.111,3.508,0.978,6.203,2.603,8.086s4.209,2.825,7.755,2.825c1.957,0,3.508-0.184,4.651-0.554
				c1.146-0.369,1.976-0.684,2.494-0.94l0.664,3.1c-0.519,0.297-1.486,0.647-2.908,1.053c-1.421,0.406-3.093,0.609-5.013,0.609
				c-2.511,0-4.651-0.369-6.423-1.107c-1.774-0.738-3.232-1.773-4.376-3.102c-1.146-1.33-1.977-2.908-2.494-4.736
				C350.152,34.677,349.895,32.675,349.895,30.495z M370.221,28.225c-0.074-2.991-0.775-5.318-2.104-6.979
				c-1.33-1.662-3.214-2.493-5.65-2.493c-1.292,0-2.446,0.258-3.461,0.775c-1.016,0.518-1.902,1.209-2.66,2.077
				c-0.757,0.868-1.348,1.875-1.771,3.019c-0.427,1.145-0.674,2.345-0.748,3.601H370.221z"/>
		</g>
		<g>
			<path fill="#EC1C24" d="M31.274,13.663c0,0-2.642,6.202-5.874,15.312c-2.821,7.948-5.396,15.648-5.396,15.648h-7.258
				c1.439-4.098,2.804-7.882,4.096-11.354c1.291-3.47,2.554-6.756,3.79-9.858c1.235-3.102,2.462-6.055,3.679-8.862
				c1.218-2.806,2.473-5.575,3.764-8.308h6.662c1.292,2.733,2.548,5.502,3.767,8.308c1.218,2.807,2.445,5.76,3.683,8.862
				c1.238,3.102,2.511,6.389,3.822,9.858c1.311,3.471,2.686,7.256,4.126,11.354h-7.535C38.263,31.811,34.119,20.256,31.274,13.663z"
				/>
		</g>
		<path fill="#EC1C24" d="M29.364,44.477h7.769c-1.122-3.121-2.195-6.067-3.217-8.774c-1.023-2.707-2.016-5.229-2.981-7.647
			c-0.574-1.439-0.875-2.54-1.443-3.898l-3.714,10.319C27.309,38.676,28.045,40.316,29.364,44.477z"/>
		<path fill="#EC1C24" d="M21.904,0c0,0-3.236,1.955-4.633,5.447c0,0-3.404,0.465-5.565,2.235c-1.263,1.035-1.947,3.342-1.947,3.342
			c-3.846,0-5.982,0.941-8.67,2.385c0,0-1.118,7.963,4.61,12.015c0,0,0.559-2.095,0.978-3.213c0,0,3.633-0.419,6.008-0.279
			c2.374,0.14,3.771,3.632,1.956,4.61c-1.816,0.978-4.052,2.793-6.148,0c0,0-2.234,3.631-0.977,5.728
			c1.257,2.096,4.423,1.96,7.116,1.062c0,0,5.683-16.113,11.303-27.608C25.934,5.725,23.161,0.838,21.904,0z M11.799,11.572
			c-0.01-1.249,1.55-2.854,1.55-2.854c1.539,0.256,2.921,1.736,2.921,1.736C15.089,11.165,11.799,11.572,11.799,11.572z"/>
	</g>
</g>
</svg>
