<?xml version="1.0" encoding="utf-8"?>
<!-- Generator: Adobe Illustrator 16.0.0, SVG Export Plug-In . SVG Version: 6.00 Build 0)  -->
<!DOCTYPE svg PUBLIC "-//W3C//DTD SVG 1.1//EN" "http://www.w3.org/Graphics/SVG/1.1/DTD/svg11.dtd">
<svg version="1.1" id="Layer_1" xmlns="http://www.w3.org/2000/svg" xmlns:xlink="http://www.w3.org/1999/xlink" x="0px" y="0px"
	 width="208px" height="30px" viewBox="0 0 208 30" enable-background="new 0 0 208 30" xml:space="preserve">
<g>
	<g>
		<g>
			<path fill="#EC1C24" d="M40.888,22.752c0,2.508-0.637,4.342-1.91,5.504C37.705,29.419,35.755,30,33.129,30
				c-0.962,0-1.899-0.079-2.812-0.239c-0.912-0.161-1.739-0.372-2.48-0.633l0.661-3.097c0.622,0.26,1.329,0.471,2.121,0.631
				c0.792,0.16,1.649,0.24,2.571,0.24c1.463,0,2.506-0.301,3.128-0.901c0.621-0.602,0.932-1.494,0.932-2.677v-0.602
				c-0.36,0.181-0.837,0.361-1.428,0.541c-0.592,0.182-1.268,0.271-2.03,0.271c-1.002,0-1.919-0.16-2.751-0.481
				c-0.832-0.32-1.544-0.791-2.135-1.412c-0.592-0.622-1.053-1.399-1.383-2.331c-0.331-0.933-0.496-2.01-0.496-3.233
				c0-1.142,0.175-2.195,0.526-3.157c0.35-0.962,0.862-1.784,1.534-2.466c0.671-0.681,1.488-1.213,2.451-1.594
				s2.055-0.571,3.278-0.571c1.182,0,2.305,0.09,3.368,0.271c1.063,0.18,1.965,0.371,2.707,0.571V22.752z M30.753,16.076
				c0,1.545,0.335,2.672,1.008,3.384c0.671,0.712,1.538,1.067,2.601,1.067c0.581,0,1.127-0.08,1.639-0.24s0.927-0.351,1.248-0.571
				v-8.15c-0.261-0.06-0.582-0.115-0.962-0.165s-0.862-0.075-1.443-0.075c-1.324,0-2.335,0.436-3.037,1.308
				C31.104,13.505,30.753,14.653,30.753,16.076z"/>
			<path fill="#EC1C24" d="M48.83,4.018c0,0.682-0.221,1.224-0.662,1.624c-0.441,0.401-0.962,0.601-1.563,0.601
				c-0.622,0-1.153-0.2-1.594-0.601c-0.441-0.4-0.661-0.942-0.661-1.624c0-0.702,0.22-1.253,0.661-1.654
				c0.441-0.401,0.973-0.602,1.594-0.602c0.601,0,1.123,0.2,1.563,0.602C48.609,2.765,48.83,3.316,48.83,4.018z M48.439,24.347
				h-3.639V8.619h3.639V24.347z"/>
			<path fill="#EC1C24" d="M57.786,24.648c-1.083-0.021-1.98-0.142-2.692-0.361c-0.712-0.221-1.278-0.537-1.699-0.948
				c-0.421-0.41-0.717-0.922-0.887-1.533c-0.17-0.611-0.255-1.309-0.255-2.09V1.611l3.638-0.601v18.013
				c0,0.441,0.035,0.812,0.105,1.113c0.07,0.301,0.196,0.557,0.375,0.767c0.181,0.21,0.426,0.371,0.737,0.481
				s0.707,0.195,1.188,0.256L57.786,24.648z"/>
			<path fill="#EC1C24" d="M59.688,16.558c0-1.384,0.206-2.596,0.617-3.639c0.411-1.042,0.958-1.91,1.639-2.601
				c0.682-0.692,1.463-1.212,2.346-1.563s1.784-0.527,2.707-0.527c2.165,0,3.854,0.672,5.067,2.015
				c1.212,1.344,1.819,3.349,1.819,6.015c0,0.201-0.005,0.427-0.016,0.677c-0.01,0.252-0.025,0.477-0.045,0.678H63.448
				c0.1,1.262,0.546,2.239,1.338,2.932c0.792,0.691,1.94,1.037,3.443,1.037c0.882,0,1.689-0.08,2.421-0.24
				c0.731-0.16,1.309-0.332,1.729-0.512l0.481,2.978c-0.201,0.101-0.477,0.206-0.827,0.315c-0.351,0.111-0.752,0.211-1.203,0.301
				c-0.451,0.09-0.938,0.166-1.459,0.227c-0.521,0.059-1.052,0.09-1.594,0.09c-1.383,0-2.586-0.206-3.608-0.617
				c-1.022-0.41-1.865-0.982-2.526-1.715c-0.662-0.73-1.154-1.593-1.474-2.586C59.849,18.828,59.688,17.741,59.688,16.558z
				 M70.244,14.934c0-0.501-0.07-0.978-0.21-1.429s-0.345-0.842-0.616-1.173c-0.271-0.331-0.602-0.591-0.993-0.782
				c-0.391-0.19-0.857-0.286-1.398-0.286c-0.562,0-1.053,0.105-1.474,0.315c-0.421,0.211-0.777,0.487-1.068,0.827
				c-0.291,0.341-0.516,0.732-0.676,1.173c-0.161,0.441-0.271,0.893-0.331,1.354H70.244z"/>
		</g>
		<g>
			<path fill="#FFFFFF" d="M82.616,23.023c1.625,0,2.887-0.297,3.79-0.889c0.902-0.594,1.354-1.553,1.354-2.879
				c0-0.764-0.146-1.401-0.436-1.914c-0.292-0.512-0.677-0.944-1.158-1.295c-0.482-0.353-1.034-0.652-1.655-0.902
				c-0.621-0.249-1.273-0.513-1.955-0.792c-0.862-0.338-1.634-0.687-2.315-1.045c-0.682-0.359-1.263-0.764-1.744-1.215
				c-0.481-0.451-0.847-0.967-1.098-1.548c-0.251-0.581-0.376-1.264-0.376-2.045c0-1.784,0.591-3.137,1.774-4.06
				c1.183-0.921,2.827-1.383,4.933-1.383c0.561,0,1.112,0.04,1.654,0.12c0.542,0.081,1.047,0.186,1.519,0.315
				c0.471,0.13,0.902,0.276,1.293,0.437s0.717,0.331,0.978,0.511L88.45,6.152c-0.582-0.4-1.289-0.721-2.12-0.962
				c-0.832-0.241-1.729-0.361-2.692-0.361c-0.662,0-1.268,0.066-1.819,0.196c-0.552,0.131-1.028,0.341-1.429,0.631
				c-0.401,0.291-0.717,0.657-0.947,1.098c-0.23,0.441-0.346,0.973-0.346,1.594c0,0.642,0.12,1.183,0.36,1.624
				c0.241,0.441,0.576,0.822,1.008,1.142c0.43,0.321,0.937,0.612,1.518,0.873c0.582,0.261,1.213,0.531,1.895,0.812
				c0.822,0.341,1.599,0.682,2.331,1.022c0.731,0.341,1.368,0.742,1.91,1.202c0.541,0.463,0.972,1.023,1.293,1.686
				c0.321,0.661,0.481,1.473,0.481,2.436c0,1.885-0.657,3.297-1.97,4.24s-3.093,1.412-5.338,1.412c-0.802,0-1.534-0.049-2.195-0.148
				c-0.662-0.102-1.253-0.227-1.774-0.377s-0.962-0.306-1.323-0.466c-0.361-0.16-0.642-0.302-0.842-0.421l0.662-1.774
				c0.2,0.12,0.471,0.261,0.812,0.421c0.341,0.16,0.742,0.316,1.203,0.466c0.461,0.15,0.982,0.276,1.564,0.376
				C81.273,22.974,81.915,23.023,82.616,23.023z"/>
			<path fill="#FFFFFF" d="M95.255,4.108c0,0.461-0.141,0.827-0.421,1.098c-0.281,0.271-0.622,0.406-1.022,0.406
				c-0.401,0-0.742-0.135-1.022-0.406c-0.281-0.271-0.421-0.637-0.421-1.098s0.14-0.827,0.421-1.098
				c0.28-0.271,0.621-0.406,1.022-0.406c0.401,0,0.741,0.135,1.022,0.406C95.115,3.281,95.255,3.647,95.255,4.108z M94.805,24.347
				H92.85V8.799h1.955V24.347z"/>
			<path fill="#FFFFFF" d="M99.15,9.34c0.582-0.161,1.363-0.34,2.346-0.541c0.982-0.2,2.185-0.301,3.607-0.301
				c1.184,0,2.171,0.17,2.963,0.512c0.792,0.341,1.424,0.827,1.895,1.458c0.471,0.631,0.808,1.388,1.007,2.27
				c0.201,0.883,0.302,1.855,0.302,2.917v8.691h-1.955v-8.06c0-1.102-0.075-2.034-0.226-2.796s-0.401-1.384-0.751-1.865
				c-0.353-0.481-0.813-0.827-1.384-1.038c-0.571-0.211-1.288-0.316-2.15-0.316c-0.922,0-1.719,0.05-2.391,0.15
				c-0.672,0.101-1.108,0.191-1.309,0.271v13.653H99.15V9.34z"/>
			<path fill="#FFFFFF" d="M125.635,22.543c-0.12,0.101-0.301,0.215-0.542,0.346c-0.24,0.131-0.536,0.266-0.887,0.404
				c-0.351,0.142-0.752,0.258-1.203,0.348s-0.957,0.135-1.52,0.135c-0.901,0-1.773-0.141-2.615-0.421s-1.579-0.722-2.211-1.323
				c-0.631-0.602-1.138-1.379-1.519-2.33c-0.381-0.953-0.57-2.111-0.57-3.475c0-1.102,0.17-2.125,0.51-3.067
				c0.342-0.942,0.828-1.759,1.459-2.451c0.632-0.692,1.403-1.233,2.316-1.625c0.911-0.39,1.939-0.586,3.082-0.586
				c1.443,0,2.602,0.096,3.474,0.286s1.588,0.375,2.149,0.556v14.194c0,2.325-0.602,3.985-1.804,4.978
				c-1.203,0.992-3.019,1.488-5.443,1.488c-1.003,0-1.91-0.075-2.721-0.226c-0.812-0.149-1.51-0.326-2.091-0.526l0.391-1.773
				c0.481,0.22,1.138,0.411,1.97,0.571s1.669,0.24,2.512,0.24c1.844,0,3.182-0.356,4.015-1.067c0.831-0.712,1.248-1.93,1.248-3.654
				V22.543z M125.604,10.694c-0.342-0.1-0.781-0.195-1.323-0.286c-0.542-0.09-1.313-0.135-2.315-0.135
				c-0.843,0-1.59,0.146-2.24,0.437c-0.651,0.291-1.208,0.702-1.669,1.232c-0.462,0.532-0.812,1.163-1.054,1.895
				c-0.24,0.732-0.36,1.539-0.36,2.421c0,1.022,0.141,1.899,0.421,2.632c0.281,0.732,0.646,1.328,1.098,1.789
				s0.967,0.797,1.549,1.008c0.581,0.211,1.173,0.316,1.773,0.316c0.883,0,1.689-0.131,2.422-0.392
				c0.731-0.261,1.298-0.562,1.699-0.902V10.694z"/>
			<path fill="#FFFFFF" d="M136.584,8.438c1.022,0,1.89,0.146,2.602,0.437c0.711,0.291,1.287,0.691,1.729,1.203
				s0.762,1.118,0.963,1.82c0.2,0.702,0.3,1.463,0.3,2.285v9.804c-0.199,0.061-0.491,0.125-0.871,0.195
				c-0.382,0.07-0.822,0.146-1.323,0.226s-1.058,0.146-1.67,0.194c-0.611,0.051-1.238,0.076-1.879,0.076
				c-0.822,0-1.579-0.09-2.271-0.271s-1.293-0.466-1.805-0.856c-0.511-0.393-0.912-0.893-1.203-1.504
				c-0.29-0.612-0.436-1.359-0.436-2.241c0-0.843,0.16-1.563,0.481-2.165c0.32-0.602,0.771-1.098,1.354-1.488
				c0.581-0.392,1.271-0.677,2.074-0.857c0.802-0.18,1.675-0.271,2.616-0.271c0.281,0,0.576,0.016,0.888,0.045
				c0.311,0.031,0.611,0.071,0.902,0.121c0.29,0.051,0.541,0.102,0.752,0.15c0.211,0.051,0.354,0.096,0.435,0.136v-0.962
				c0-0.542-0.039-1.068-0.119-1.579c-0.081-0.512-0.256-0.972-0.526-1.383c-0.271-0.411-0.651-0.742-1.144-0.993
				c-0.491-0.25-1.138-0.375-1.939-0.375c-1.142,0-1.994,0.08-2.556,0.24c-0.562,0.161-0.972,0.291-1.233,0.391L132.434,9.1
				c0.341-0.16,0.867-0.311,1.579-0.451C134.724,8.509,135.581,8.438,136.584,8.438z M136.765,22.934
				c0.762,0,1.428-0.025,1.999-0.075s1.058-0.115,1.458-0.196v-5.473c-0.22-0.1-0.57-0.205-1.051-0.316
				c-0.481-0.109-1.144-0.164-1.986-0.164c-0.48,0-0.981,0.035-1.504,0.104c-0.521,0.07-1.002,0.222-1.441,0.45
				c-0.442,0.231-0.803,0.547-1.084,0.948c-0.28,0.401-0.421,0.933-0.421,1.594c0,0.582,0.095,1.073,0.286,1.474
				c0.189,0.401,0.461,0.723,0.812,0.963c0.35,0.24,0.771,0.416,1.262,0.525C135.586,22.879,136.144,22.934,136.765,22.934z"/>
			<path fill="#FFFFFF" d="M148.359,29.91h-1.954V9.34c0.582-0.2,1.323-0.391,2.225-0.571c0.903-0.181,2.047-0.271,3.43-0.271
				c1.142,0,2.18,0.186,3.111,0.557c0.933,0.371,1.735,0.907,2.406,1.608c0.672,0.702,1.192,1.554,1.564,2.556
				c0.37,1.002,0.556,2.135,0.556,3.398c0,1.183-0.155,2.271-0.467,3.263c-0.311,0.992-0.766,1.845-1.368,2.557
				c-0.601,0.712-1.338,1.268-2.21,1.668c-0.872,0.401-1.869,0.602-2.991,0.602c-1.023,0-1.91-0.145-2.662-0.436
				c-0.752-0.29-1.299-0.566-1.64-0.826V29.91z M148.359,21.551c0.181,0.14,0.406,0.29,0.677,0.451
				c0.271,0.16,0.587,0.31,0.948,0.451c0.361,0.139,0.751,0.255,1.173,0.346c0.421,0.09,0.861,0.135,1.323,0.135
				c0.962,0,1.769-0.166,2.42-0.496s1.178-0.782,1.579-1.354c0.401-0.572,0.692-1.243,0.872-2.016
				c0.181-0.771,0.271-1.588,0.271-2.45c0-2.045-0.512-3.613-1.533-4.706c-1.022-1.093-2.376-1.64-4.06-1.64
				c-0.963,0-1.74,0.045-2.331,0.135c-0.592,0.091-1.037,0.186-1.339,0.286V21.551z"/>
			<path fill="#FFFFFF" d="M176.571,16.588c0,1.223-0.176,2.336-0.526,3.338c-0.351,1.003-0.843,1.855-1.474,2.557
				c-0.632,0.701-1.379,1.248-2.24,1.639c-0.862,0.391-1.814,0.586-2.857,0.586c-1.042,0-1.994-0.195-2.856-0.586
				s-1.609-0.938-2.241-1.639s-1.122-1.554-1.473-2.557c-0.352-1.002-0.527-2.115-0.527-3.338s0.176-2.335,0.527-3.338
				c0.351-1.002,0.841-1.859,1.473-2.571c0.632-0.711,1.379-1.263,2.241-1.654c0.862-0.391,1.814-0.587,2.856-0.587
				c1.043,0,1.995,0.196,2.857,0.587c0.861,0.391,1.608,0.942,2.24,1.654c0.631,0.712,1.123,1.569,1.474,2.571
				C176.396,14.253,176.571,15.365,176.571,16.588z M174.496,16.588c0-1.944-0.451-3.493-1.354-4.646
				c-0.902-1.152-2.125-1.729-3.669-1.729c-1.543,0-2.766,0.577-3.669,1.729c-0.901,1.153-1.354,2.702-1.354,4.646
				c0,1.945,0.452,3.488,1.354,4.631c0.903,1.143,2.126,1.715,3.669,1.715c1.544,0,2.767-0.572,3.669-1.715
				S174.496,18.533,174.496,16.588z"/>
			<path fill="#FFFFFF" d="M185.391,8.498c0.642,0,1.248,0.05,1.82,0.151c0.571,0.101,0.966,0.201,1.187,0.3l-0.39,1.684
				c-0.161-0.08-0.486-0.165-0.979-0.256c-0.491-0.09-1.138-0.135-1.938-0.135c-0.843,0-1.519,0.061-2.03,0.181
				c-0.512,0.121-0.848,0.221-1.008,0.301v13.623h-1.955V9.521c0.502-0.22,1.193-0.446,2.075-0.676
				C183.055,8.614,184.128,8.498,185.391,8.498z"/>
			<path fill="#FFFFFF" d="M189.438,16.558c0-1.362,0.196-2.551,0.587-3.563s0.901-1.859,1.533-2.541
				c0.632-0.681,1.354-1.188,2.165-1.519c0.812-0.331,1.648-0.496,2.512-0.496c1.904,0,3.423,0.622,4.556,1.865
				c1.132,1.243,1.699,3.158,1.699,5.744c0,0.16-0.005,0.32-0.016,0.48c-0.01,0.161-0.024,0.311-0.045,0.451h-10.916
				c0.061,1.904,0.53,3.369,1.413,4.391c0.882,1.023,2.285,1.534,4.21,1.534c1.063,0,1.905-0.1,2.526-0.301
				c0.622-0.2,1.072-0.371,1.354-0.511l0.361,1.684c-0.282,0.16-0.808,0.352-1.579,0.571c-0.771,0.221-1.68,0.331-2.723,0.331
				c-1.362,0-2.525-0.201-3.487-0.602c-0.963-0.4-1.755-0.963-2.376-1.684c-0.622-0.723-1.073-1.579-1.354-2.572
				C189.578,18.828,189.438,17.741,189.438,16.558z M200.475,15.325c-0.04-1.624-0.421-2.887-1.142-3.789
				c-0.723-0.903-1.745-1.354-3.068-1.354c-0.701,0-1.328,0.14-1.879,0.421c-0.552,0.281-1.033,0.657-1.444,1.128
				s-0.731,1.018-0.961,1.639c-0.232,0.622-0.366,1.273-0.406,1.955H200.475z"/>
		</g>
		<g>
			<path fill="#EC1C24" d="M16.438,7.418c0,0-1.435,3.368-3.189,8.314c-1.532,4.315-2.93,8.496-2.93,8.496H6.378
				c0.781-2.225,1.522-4.279,2.224-6.164c0.701-1.885,1.387-3.668,2.058-5.353c0.671-1.684,1.337-3.288,1.998-4.812
				C13.318,6.376,14,4.873,14.701,3.389h3.617c0.702,1.484,1.383,2.988,2.045,4.511c0.662,1.524,1.328,3.127,2,4.812
				c0.672,1.685,1.363,3.468,2.075,5.353s1.458,3.939,2.241,6.164h-4.091C20.232,17.272,17.982,10.998,16.438,7.418z"/>
		</g>
		<path fill="#EC1C24" d="M15.401,24.149h4.218c-0.609-1.694-1.192-3.294-1.747-4.765c-0.556-1.469-1.095-2.838-1.619-4.152
			c-0.312-0.781-0.475-1.378-0.783-2.116l-2.017,5.602C14.285,21,14.685,21.891,15.401,24.149z"/>
		<path fill="#EC1C24" d="M11.35,0c0,0-1.757,1.062-2.515,2.958c0,0-1.849,0.253-3.022,1.214C5.127,4.733,4.756,5.986,4.756,5.986
			c-2.088,0-3.249,0.511-4.708,1.295c0,0-0.607,4.324,2.503,6.523c0,0,0.304-1.138,0.531-1.745c0,0,1.973-0.228,3.262-0.151
			c1.289,0.076,2.047,1.972,1.062,2.503c-0.986,0.531-2.2,1.517-3.338,0c0,0-1.213,1.972-0.53,3.109
			c0.683,1.139,2.401,1.064,3.864,0.577c0,0,3.085-8.749,6.137-14.99C13.539,3.108,12.033,0.455,11.35,0z M5.864,6.283
			c-0.006-0.678,0.841-1.55,0.841-1.55c0.835,0.139,1.586,0.942,1.586,0.942C7.65,6.062,5.864,6.283,5.864,6.283z"/>
	</g>
</g>
</svg>
