<?xml version="1.0" encoding="UTF-8" standalone="no"?>
<svg width="75px" height="24px" viewBox="0 0 75 24" version="1.1" xmlns="http://www.w3.org/2000/svg" xmlns:xlink="http://www.w3.org/1999/xlink" xmlns:sketch="http://www.bohemiancoding.com/sketch/ns">
    <!-- Generator: Sketch 3.5.1 (25234) - http://www.bohemiancoding.com/sketch -->
    <title>Page 1</title>
    <desc>Created with Sketch.</desc>
    <defs>
        <path id="path-1" d="M0,0.307 L75.025,0.307 L75.025,23 L0,23"></path>
    </defs>
    <g id="Home" stroke="none" stroke-width="1" fill="none" fill-rule="evenodd" sketch:type="MSPage">
        <g id="Page-1" sketch:type="MSLayerGroup" transform="translate(0.000000, 0.451172)">
            <path d="M34.4468,10.9756 C34.4468,11.2526 34.3988,11.5196 34.3028,11.7746 C34.2058,12.0316 34.0798,12.2766 33.9258,12.5136 C33.7708,12.7506 33.5968,12.9796 33.4028,13.1986 C33.2098,13.4176 33.0198,13.6256 32.8328,13.8236 C32.7368,13.9256 32.6328,14.0396 32.5178,14.1666 C32.4068,14.2956 32.2988,14.4246 32.1958,14.5566 C32.0918,14.6876 32.0008,14.8096 31.9208,14.9236 C31.8398,15.0366 31.7898,15.1296 31.7688,15.2036 L34.6498,15.2036 L34.6498,16.5716 L30.1848,16.5716 C30.1718,16.4916 30.1658,16.3886 30.1658,16.2656 L30.1658,16.0016 C30.1658,15.6516 30.2158,15.3296 30.3158,15.0376 C30.4158,14.7466 30.5458,14.4736 30.7068,14.2226 C30.8688,13.9706 31.0508,13.7356 31.2528,13.5166 C31.4558,13.2976 31.6568,13.0786 31.8568,12.8596 C32.0118,12.6916 32.1558,12.5326 32.2918,12.3816 C32.4258,12.2326 32.5468,12.0866 32.6488,11.9456 C32.7528,11.8016 32.8328,11.6606 32.8908,11.5186 C32.9488,11.3756 32.9778,11.2306 32.9778,11.0856 C32.9778,10.7646 32.8978,10.5376 32.7368,10.4066 C32.5758,10.2746 32.3758,10.2086 32.1378,10.2086 C31.9638,10.2086 31.8008,10.2416 31.6488,10.3016 C31.4978,10.3646 31.3588,10.4376 31.2328,10.5216 C31.1078,10.6066 30.9998,10.6896 30.9098,10.7736 C30.8198,10.8566 30.7518,10.9256 30.7068,10.9756 L29.9918,9.8366 C30.2758,9.5386 30.6048,9.2896 30.9828,9.0976 C31.3588,8.9046 31.7628,8.8066 32.1958,8.8066 C32.5878,8.8066 32.9258,8.8576 33.2098,8.9596 C33.4938,9.0616 33.7278,9.2056 33.9108,9.3926 C34.0928,9.5796 34.2298,9.8056 34.3158,10.0726 C34.4038,10.3396 34.4468,10.6396 34.4468,10.9756" id="Fill-1" fill="#EC1C24" sketch:type="MSShapeGroup"></path>
            <path d="M48.6265,12.9424 C48.6265,14.2784 48.3735,15.3034 47.8685,16.0184 C47.3635,16.7324 46.6675,17.0884 45.7785,17.0884 C44.8905,17.0884 44.1945,16.7324 43.6895,16.0184 C43.1855,15.3034 42.9325,14.2784 42.9325,12.9424 C42.9325,12.2774 42.9985,11.6904 43.1315,11.1784 C43.2645,10.6674 43.4555,10.2354 43.7065,9.8834 C43.9575,9.5334 44.2575,9.2654 44.6065,9.0824 C44.9555,8.8984 45.3465,8.8064 45.7785,8.8064 C46.6675,8.8064 47.3635,9.1644 47.8685,9.8794 C48.3735,10.5924 48.6265,11.6134 48.6265,12.9424 M46.8955,12.9424 C46.8955,12.5464 46.8755,12.1844 46.8385,11.8604 C46.8005,11.5354 46.7385,11.2554 46.6555,11.0184 C46.5715,10.7814 46.4585,10.5984 46.3135,10.4674 C46.1705,10.3384 45.9905,10.2734 45.7785,10.2734 C45.5655,10.2734 45.3905,10.3384 45.2495,10.4674 C45.1085,10.5984 44.9965,10.7814 44.9075,11.0184 C44.8215,11.2554 44.7575,11.5354 44.7205,11.8604 C44.6815,12.1844 44.6635,12.5464 44.6635,12.9424 C44.6635,13.3394 44.6815,13.7034 44.7205,14.0314 C44.7575,14.3594 44.8215,14.6414 44.9075,14.8784 C44.9965,15.1154 45.1085,15.2974 45.2495,15.4274 C45.3905,15.5584 45.5655,15.6234 45.7785,15.6234 C45.9905,15.6234 46.1705,15.5584 46.3135,15.4274 C46.4585,15.2974 46.5715,15.1154 46.6555,14.8784 C46.7385,14.6414 46.8005,14.3594 46.8385,14.0314 C46.8755,13.7034 46.8955,13.3394 46.8955,12.9424" id="Fill-3" fill="#EC1C24" sketch:type="MSShapeGroup"></path>
            <path d="M56.3892,10.4199 C56.6012,10.3319 56.8202,10.2289 57.0482,10.1129 C57.2782,9.9979 57.4992,9.8689 57.7182,9.7319 C57.9362,9.5939 58.1442,9.4479 58.3432,9.2939 C58.5422,9.1419 58.7222,8.9799 58.8822,8.8069 L60.0142,8.8069 L60.0142,16.5709 L58.3922,16.5709 L58.3922,10.9809 C58.1742,11.1299 57.9312,11.2669 57.6632,11.3899 C57.3962,11.5139 57.1342,11.6189 56.8802,11.7089 L56.3892,10.4199" id="Fill-5" fill="#EC1C24" sketch:type="MSShapeGroup"></path>
            <path d="M72.27,11.5986 C72.767,11.5986 73.19,11.6616 73.539,11.7896 C73.887,11.9166 74.171,12.0886 74.392,12.3076 C74.615,12.5256 74.775,12.7796 74.875,13.0716 C74.975,13.3626 75.025,13.6706 75.025,13.9976 C75.025,14.2896 74.969,14.5866 74.858,14.8916 C74.747,15.1976 74.579,15.4746 74.353,15.7206 C74.126,15.9676 73.84,16.1706 73.492,16.3306 C73.145,16.4916 72.732,16.5716 72.257,16.5716 C71.301,16.5716 70.574,16.2856 70.077,15.7096 C69.58,15.1356 69.331,14.3426 69.331,13.3326 C69.331,12.6066 69.449,11.9616 69.687,11.4026 C69.923,10.8426 70.261,10.3716 70.703,9.9916 C71.143,9.6096 71.674,9.3176 72.297,9.1186 C72.922,8.9176 73.624,8.8146 74.405,8.8066 C74.419,9.0326 74.434,9.2526 74.451,9.4676 C74.465,9.6826 74.482,9.9046 74.497,10.1376 C74.106,10.1456 73.741,10.1796 73.4,10.2426 C73.059,10.3036 72.749,10.3986 72.47,10.5316 C72.191,10.6616 71.948,10.8296 71.741,11.0376 C71.535,11.2446 71.374,11.4966 71.259,11.7946 C71.427,11.7226 71.599,11.6716 71.776,11.6436 C71.953,11.6136 72.117,11.5986 72.27,11.5986 M72.051,12.8636 C71.883,12.8636 71.703,12.8786 71.512,12.9076 C71.321,12.9366 71.171,12.9766 71.064,13.0276 C71.064,13.0566 71.062,13.1006 71.059,13.1596 C71.055,13.2156 71.052,13.2666 71.052,13.3116 C71.052,13.5726 71.073,13.8196 71.11,14.0526 C71.148,14.2856 71.213,14.4886 71.305,14.6626 C71.397,14.8366 71.52,14.9736 71.673,15.0726 C71.825,15.1696 72.017,15.2186 72.247,15.2186 C72.437,15.2186 72.599,15.1796 72.735,15.1046 C72.869,15.0286 72.979,14.9326 73.067,14.8156 C73.155,14.7006 73.22,14.5706 73.262,14.4286 C73.304,14.2866 73.327,14.1516 73.327,14.0206 C73.327,13.6496 73.229,13.3636 73.034,13.1626 C72.838,12.9636 72.51,12.8636 72.051,12.8636" id="Fill-7" fill="#ED1C24" sketch:type="MSShapeGroup"></path>
            <path d="M15.397,7.2549 C15.397,7.2549 14.053,10.4089 12.41,15.0419 C10.975,19.0839 9.665,22.9999 9.665,22.9999 L5.974,22.9999 C6.706,20.9169 7.4,18.9909 8.057,17.2269 C8.714,15.4619 9.356,13.7899 9.984,12.2119 C10.613,10.6349 11.237,9.1329 11.855,7.7049 C12.475,6.2789 13.113,4.8709 13.77,3.4809 L17.157,3.4809 C17.814,4.8709 18.453,6.2789 19.072,7.7049 C19.692,9.1329 20.316,10.6349 20.946,12.2119 C21.575,13.7899 22.222,15.4619 22.889,17.2269 C23.556,18.9909 24.255,20.9169 24.988,22.9999 L21.156,22.9999 C18.95,16.4839 16.842,10.6079 15.397,7.2549" id="Fill-9" fill="#EC1C24" sketch:type="MSShapeGroup"></path>
            <path d="M14.4253,22.9248 L18.3743,22.9248 C17.8043,21.3378 17.2593,19.8398 16.7383,18.4638 C16.2183,17.0868 15.7143,15.8048 15.2233,14.5738 C14.9313,13.8428 14.7783,13.2828 14.4893,12.5928 L12.6013,17.8408 C13.3803,19.9758 13.7543,20.8098 14.4253,22.9248" id="Fill-11" fill="#EC1C24" sketch:type="MSShapeGroup"></path>
            <g id="Group-15">
                <mask id="mask-2" sketch:name="Clip 14" fill="white">
                    <use xlink:href="#path-1"></use>
                </mask>
                <g id="Clip-14"></g>
                <path d="M5.4922,6.1919 C5.4872,5.5559 6.2802,4.7389 6.2802,4.7389 C7.0622,4.8699 7.7662,5.6229 7.7662,5.6229 C7.1652,5.9839 5.4922,6.1919 5.4922,6.1919 M10.6312,0.3069 C10.6312,0.3069 8.9852,1.3009 8.2752,3.0769 C8.2752,3.0769 6.5442,3.3139 5.4452,4.2139 C4.8032,4.7389 4.4542,5.9139 4.4542,5.9139 C2.4982,5.9139 1.4122,6.3919 0.0452,7.1259 C0.0452,7.1259 -0.5238,11.1769 2.3892,13.2359 C2.3892,13.2359 2.6742,12.1709 2.8872,11.6029 C2.8872,11.6029 4.7342,11.3899 5.9422,11.4599 C7.1492,11.5319 7.8602,13.3079 6.9372,13.8049 C6.0132,14.3029 4.8762,15.2259 3.8102,13.8049 C3.8102,13.8049 2.6742,15.6509 3.3132,16.7179 C3.9532,17.7839 5.5632,17.7149 6.9322,17.2579 C6.9322,17.2579 9.8222,9.0649 12.6802,3.2179 C12.6802,3.2179 11.2702,0.7329 10.6312,0.3069" id="Fill-13" fill="#EC1C24" sketch:type="MSShapeGroup" mask="url(#mask-2)"></path>
            </g>
        </g>
    </g>
</svg>